# xmcd CD database file
#
# Track frame offsets:
#	150
#	36905
#	73020
#	100573
#	115330
#	156237
#	168518
#	196221
#
# Disc length: 2889 seconds
#
# Revision: 0
# Processed by: cddbd v1.5.2PL0 Copyright (c) Steve Scherf et al.
# Submitted via: NeoAudio 9.9.9
#
DISCID=660b4708
DTITLE=Ricardo Rodrigues - Música Orgânica
DYEAR=2012
DGENRE=Blues
TTITLE0=Pax et Bonum
TTITLE1=Eu Jazzaria
TTITLE2=Ciliar
TTITLE3=Launeddas
TTITLE4=Brota Samba Ponta D'água
TTITLE5=Saxonomatopéia
TTITLE6=Lamento Sanfônico
TTITLE7=Bossa Tá Tudo Quase Combinado
EXTD=YEAR: 2012
EXTT0=
EXTT1=
EXTT2=
EXTT3=
EXTT4=
EXTT5=
EXTT6=
EXTT7=
PLAYORDER=
